<?xml version="1.0" encoding="iso-8859-1"?>
<!-- Generator: Adobe Illustrator 19.0.0, SVG Export Plug-In . SVG Version: 6.00 Build 0)  -->
<svg version="1.1" id="Layer_1" xmlns="http://www.w3.org/2000/svg" xmlns:xlink="http://www.w3.org/1999/xlink" x="0px" y="0px"
	 viewBox="0 0 512 512" style="enable-background:new 0 0 512 512;" xml:space="preserve">
<g>
	<g>
		<g>
			<path d="M97.493,242.671c-12.638,8.823-22.016,21.777-26.402,36.489c-1.34,4.514,1.229,9.267,5.743,10.615
				c0.811,0.239,1.638,0.358,2.441,0.358c3.678,0,7.074-2.398,8.175-6.101c3.285-11.025,10.325-20.745,19.814-27.366
				c3.866-2.697,4.804-8.021,2.108-11.878C106.684,240.922,101.376,239.966,97.493,242.671z"/>
			<path d="M198.306,239.795c3.243,3.413,8.661,3.541,12.066,0.29c3.405-3.251,3.541-8.653,0.282-12.066
				c-19.524-20.48-45.85-31.753-74.121-31.753c-56.465,0-102.4,45.935-102.4,102.4c0,6.289,0.572,12.578,1.698,18.679
				c0.759,4.113,4.343,6.989,8.38,6.989c0.512,0,1.033-0.051,1.562-0.145c4.634-0.853,7.697-5.308,6.844-9.941
				c-0.947-5.086-1.417-10.334-1.417-15.582c0-47.053,38.281-85.333,85.333-85.333C160.094,213.333,182.033,222.737,198.306,239.795
				z"/>
			<path d="M246.605,128.862c2.185,0,4.369-0.836,6.033-2.5l24.141-24.132c3.337-3.336,3.337-8.738,0-12.075
				c-3.328-3.328-8.73-3.328-12.066,0l-24.141,24.141c-3.337,3.328-3.337,8.73,0,12.066
				C242.236,128.026,244.42,128.862,246.605,128.862z"/>
			<path d="M204.578,102.306c1.067,0.444,2.176,0.657,3.268,0.657c3.345,0,6.519-1.98,7.885-5.274l6.537-15.761
				c1.801-4.361-0.265-9.353-4.617-11.153c-4.369-1.809-9.353,0.265-11.153,4.617l-6.537,15.77
				C198.161,95.514,200.226,100.506,204.578,102.306z"/>
			<path d="M193.766,188.518c-2.628,3.917-1.587,9.216,2.321,11.844c3.917,2.637,9.216,1.587,11.844-2.321
				c22.272-33.178,59.383-52.975,99.268-52.975c65.869,0,119.467,53.589,119.467,119.467c0,10.829-1.451,21.547-4.292,31.863
				c-1.254,4.54,1.408,9.242,5.956,10.496c0.751,0.213,1.519,0.307,2.27,0.307c3.746,0,7.177-2.483,8.226-6.263
				c3.251-11.793,4.907-24.047,4.907-36.403C443.733,189.252,382.481,128,307.2,128C261.623,128,219.213,150.622,193.766,188.518z"
				/>
			<path d="M381.235,206.191c-3.951,2.577-5.06,7.859-2.492,11.81c9.02,13.841,13.79,29.935,13.79,46.532
				c0,4.71,3.814,8.533,8.533,8.533c4.71,0,8.533-3.823,8.533-8.533c0-19.917-5.726-39.228-16.555-55.851
				C390.468,204.732,385.186,203.614,381.235,206.191z"/>
			<path d="M32.734,160.435l15.761,6.528c1.075,0.444,2.176,0.657,3.268,0.657c3.345,0,6.528-1.988,7.885-5.274
				c1.801-4.352-0.265-9.344-4.617-11.153l-15.77-6.528c-4.378-1.809-9.353,0.265-11.145,4.617
				C26.308,153.634,28.373,158.626,32.734,160.435z"/>
			<path d="M71.62,126.362c1.673,1.664,3.849,2.5,6.033,2.5c2.185,0,4.369-0.836,6.033-2.5c3.337-3.336,3.337-8.738,0-12.066
				L59.546,90.155c-3.328-3.328-8.73-3.328-12.066,0c-3.328,3.337-3.328,8.738,0,12.075L71.62,126.362z"/>
			<path d="M8.533,213.342l34.133-0.009c4.71,0,8.533-3.814,8.533-8.525c0-4.719-3.823-8.533-8.533-8.533H8.533
				c-4.719,0-8.533,3.823-8.533,8.533S3.814,213.342,8.533,213.342z"/>
			<path d="M468.625,283.247c-3.857-2.714-9.173-1.801-11.896,2.048c-2.722,3.849-1.809,9.173,2.039,11.896
				c22.647,16,36.164,42.069,36.164,69.743c0,47.053-38.281,85.333-85.333,85.333H68.267c-28.237,0-51.2-22.963-51.2-51.2
				c0-28.237,22.963-51.2,51.2-51.2c4.71,0,8.533-3.823,8.533-8.533s-3.823-8.533-8.533-8.533C30.626,332.8,0,363.426,0,401.067
				c0,37.641,30.626,68.267,68.267,68.267H409.6c56.456,0,102.4-45.935,102.4-102.4C512,333.722,495.778,302.438,468.625,283.247z"
				/>
			<path d="M108.527,97.698c1.365,3.285,4.54,5.265,7.893,5.265c1.084,0,2.193-0.205,3.26-0.649
				c4.352-1.809,6.426-6.801,4.617-11.153l-6.537-15.77c-1.801-4.352-6.793-6.426-11.145-4.617
				c-4.352,1.801-6.426,6.793-4.617,11.153L108.527,97.698z"/>
			<path d="M76.817,195.959c0.58,0.128,1.152,0.179,1.724,0.179c3.968,0,7.526-2.782,8.346-6.818
				C94.165,153.788,125.807,128,162.133,128c16.785,0.009,32.742,5.333,46.123,15.403c3.78,2.825,9.114,2.065,11.955-1.698
				c2.833-3.763,2.074-9.114-1.69-11.947c-16.367-12.305-35.866-18.816-56.388-18.825c-44.399,0-83.072,31.531-91.964,74.957
				C69.222,190.507,72.201,195.021,76.817,195.959z"/>
			<path d="M162.133,93.875c4.71,0,8.533-3.823,8.533-8.533V51.2c0-4.71-3.823-8.533-8.533-8.533c-4.719,0-8.533,3.823-8.533,8.533
				v34.142C153.6,90.052,157.414,93.875,162.133,93.875z"/>
		</g>
	</g>
</g>
<g>
</g>
<g>
</g>
<g>
</g>
<g>
</g>
<g>
</g>
<g>
</g>
<g>
</g>
<g>
</g>
<g>
</g>
<g>
</g>
<g>
</g>
<g>
</g>
<g>
</g>
<g>
</g>
<g>
</g>
</svg>
