<?xml version="1.0" encoding="iso-8859-1"?>
<!-- Generator: Adobe Illustrator 19.0.0, SVG Export Plug-In . SVG Version: 6.00 Build 0)  -->
<svg version="1.1" id="Layer_1" xmlns="http://www.w3.org/2000/svg" xmlns:xlink="http://www.w3.org/1999/xlink" x="0px" y="0px"
	 viewBox="0 0 512 512" style="enable-background:new 0 0 512 512;" xml:space="preserve">
<g>
	<g>
		<g>
			<path d="M213.333,435.2c-4.71,0-8.533,3.823-8.533,8.533V460.8c0,4.71,3.823,8.533,8.533,8.533c4.719,0,8.533-3.823,8.533-8.533
				v-17.067C221.867,439.023,218.052,435.2,213.333,435.2z"/>
			<path d="M213.333,384c-4.71,0-8.533,3.823-8.533,8.533V409.6c0,4.71,3.823,8.533,8.533,8.533c4.719,0,8.533-3.823,8.533-8.533
				v-17.067C221.867,387.823,218.052,384,213.333,384z"/>
			<path d="M210.662,142.686c-19.524-20.48-45.85-31.753-74.129-31.753c-56.457,0-102.4,45.935-102.4,102.4
				c0,6.289,0.572,12.578,1.707,18.68c0.759,4.113,4.343,6.989,8.38,6.989c0.512,0,1.033-0.051,1.562-0.145
				c4.634-0.853,7.697-5.308,6.835-9.941c-0.939-5.086-1.417-10.334-1.417-15.582C51.2,166.281,89.481,128,136.533,128
				c23.569,0,45.508,9.404,61.781,26.462c3.243,3.413,8.653,3.533,12.058,0.29C213.786,151.501,213.914,146.099,210.662,142.686z"/>
			<path d="M128,366.933H68.267c-28.228,0-51.2-22.963-51.2-51.2s22.972-51.2,51.2-51.2c4.719,0,8.533-3.823,8.533-8.533
				c0-4.71-3.814-8.533-8.533-8.533C30.626,247.467,0,278.093,0,315.733S30.626,384,68.267,384h59.691
				c4.284,0.051,25.643,1.51,25.643,25.6v17.067c0,4.71,3.823,8.533,8.533,8.533c4.719,0,8.533-3.823,8.533-8.533V409.6
				C170.667,375.851,142.763,366.933,128,366.933z"/>
			<path d="M79.283,204.8c3.678,0,7.074-2.398,8.175-6.101c3.285-11.025,10.317-20.745,19.814-27.366
				c3.857-2.697,4.813-8.013,2.116-11.878c-2.697-3.857-8.013-4.813-11.887-2.116c-12.638,8.815-22.016,21.777-26.402,36.489
				c-1.348,4.514,1.229,9.267,5.743,10.615C77.653,204.681,78.473,204.8,79.283,204.8z"/>
			<path d="M213.333,332.8c-4.71,0-8.533,3.823-8.533,8.533V358.4c0,4.71,3.823,8.533,8.533,8.533c4.719,0,8.533-3.823,8.533-8.533
				v-17.067C221.867,336.623,218.052,332.8,213.333,332.8z"/>
			<path d="M468.625,197.914c-3.857-2.714-9.173-1.792-11.896,2.048c-2.714,3.849-1.801,9.173,2.048,11.895
				c22.639,16,36.156,42.069,36.156,69.743c0,47.053-38.272,85.333-85.333,85.333h-59.733c-14.754,0-42.667,8.917-42.667,42.667
				c0,4.71,3.823,8.533,8.533,8.533c4.719,0,8.533-3.823,8.533-8.533c0-24.09,21.367-25.549,25.6-25.6H409.6
				c56.465,0,102.4-45.935,102.4-102.4C512,248.388,495.787,217.105,468.625,197.914z"/>
			<path d="M426.667,179.2c0,10.829-1.442,21.547-4.284,31.863c-1.254,4.54,1.408,9.242,5.948,10.496
				c0.759,0.213,1.527,0.307,2.278,0.307c3.738,0,7.177-2.483,8.218-6.263c3.26-11.793,4.907-24.047,4.907-36.403
				c0-75.281-61.244-136.533-136.533-136.533c-45.568,0-87.979,22.622-113.425,60.518c-2.637,3.917-1.596,9.216,2.321,11.844
				c3.908,2.628,9.216,1.587,11.844-2.321c22.272-33.178,59.383-52.975,99.26-52.975C373.077,59.733,426.667,113.323,426.667,179.2z
				"/>
			<path d="M264.533,366.933c-4.71,0-8.533,3.823-8.533,8.533v17.067c0,4.71,3.823,8.533,8.533,8.533
				c4.719,0,8.533-3.823,8.533-8.533v-17.067C273.067,370.756,269.252,366.933,264.533,366.933z"/>
			<path d="M315.733,435.2c-4.71,0-8.533,3.823-8.533,8.533V460.8c0,4.71,3.823,8.533,8.533,8.533c4.719,0,8.533-3.823,8.533-8.533
				v-17.067C324.267,439.023,320.452,435.2,315.733,435.2z"/>
			<path d="M381.244,120.858c-3.951,2.569-5.06,7.859-2.492,11.81c9.02,13.841,13.781,29.935,13.781,46.532
				c0,4.71,3.823,8.533,8.533,8.533c4.719,0,8.533-3.823,8.533-8.533c0-19.917-5.717-39.228-16.546-55.851
				C390.477,119.407,385.203,118.281,381.244,120.858z"/>
			<path d="M264.533,418.133c-4.71,0-8.533,3.823-8.533,8.533v17.067c0,4.71,3.823,8.533,8.533,8.533
				c4.719,0,8.533-3.823,8.533-8.533v-17.067C273.067,421.956,269.252,418.133,264.533,418.133z"/>
		</g>
	</g>
</g>
<g>
</g>
<g>
</g>
<g>
</g>
<g>
</g>
<g>
</g>
<g>
</g>
<g>
</g>
<g>
</g>
<g>
</g>
<g>
</g>
<g>
</g>
<g>
</g>
<g>
</g>
<g>
</g>
<g>
</g>
</svg>
